<svg id="SvgjsSvg1001" width="288" height="288" xmlns="http://www.w3.org/2000/svg" version="1.1" xmlns:xlink="http://www.w3.org/1999/xlink" xmlns:svgjs="http://svgjs.com/svgjs"><defs id="SvgjsDefs1002"></defs><g id="SvgjsG1008"><svg xmlns="http://www.w3.org/2000/svg" data-name="Layer 1" viewBox="0 0 24 24" width="288" height="288"><path fill="#a7ff83" d="M3.43,6.53l7,7,7-7Z" class="coloraece45 svgShape"></path><polygon fill="#17b978" points="20.43 3.52 17.43 6.53 3.44 6.53 .43 3.52 20.43 3.52" class="colord9d9db svgShape"></polygon><path fill="#a7ff83" d="M23.43,3.53a3,3,0,0,1-5.12,2.12l2.12-2.12h-3a3,3,0,1,1,6,0Z" class="coloraece45 svgShape"></path><line x1="20.43" x2="21.5" y1="3.52" y2="2.95" fill="#d9d9db"></line><line x1="20.43" x2="21.31" y1="3.52" y2="4.52" fill="#d9d9db"></line><line x1="20.43" x2="20.29" y1="3.52" y2="2.2" fill="#d9d9db"></line><circle cx="8.93" cy="9.02" r=".5" fill="#17b978" class="colord9d9db svgShape"></circle><circle cx="11.93" cy="9.02" r=".5" fill="#17b978" class="colord9d9db svgShape"></circle><circle cx="10.43" cy="10.52" r=".5" fill="#17b978" class="colord9d9db svgShape"></circle><path d="M11.93,9.52a.5.5,0,1,0-.5-.5A.5.5,0,0,0,11.93,9.52ZM10.43,11a.5.5,0,1,0-.5-.5A.5.5,0,0,0,10.43,11Zm-1.5-1.5a.5.5,0,1,0-.5-.5A.5.5,0,0,0,8.93,9.52ZM20.43,0A3.49,3.49,0,0,0,17,3H.43a.5.5,0,0,0-.35.85l3,3,6.85,6.85V23H5.43a.5.5,0,1,0,0,1h10a.5.5,0,1,0,0-1h-4.5V13.73l6.85-6.85.56-.56A3.46,3.46,0,0,0,20.43,7a3.5,3.5,0,0,0,0-7Zm-10,12.79L4.64,7H16.23ZM18,5.29h0L17.23,6H3.64l-2-2H19.23ZM20.43,6a2.47,2.47,0,0,1-1.38-.42l1.35-1.35.52.6a.5.5,0,0,0,.75-.66l-.46-.52.51-.28a.5.5,0,0,0-.47-.88l-.42.22-.07-.59a.5.5,0,1,0-1,.11l.09.77H18a2.5,2.5,0,1,1,2.45,3Z"></path></svg></g></svg>